<svg xmlns="http://www.w3.org/2000/svg"  viewBox="0 0 64 64" width="64px" height="64px" clip-rule="evenodd"><g transform="translate(-232.856 -128.717) scale(.68157)"><linearGradient id="cUm1W5JUeu8Tmu~vFCpa9a" x1="388.583" x2="388.583" y1="203.526" y2="247.526" gradientUnits="userSpaceOnUse"><stop offset="0" stop-color="#6dc7ff"/><stop offset=".699" stop-color="#e6abff"/></linearGradient><path fill="url(#cUm1W5JUeu8Tmu~vFCpa9a)" fill-rule="evenodd" d="M388.583,203.526 c-17.841,0-32.293,14.452-32.293,32.278c0,2.259,0.235,4.475,0.69,6.617c2.832-0.763,5.825-1.174,8.906-1.174 c4.93,0,9.625,1.042,13.85,2.949c5.546-3.947,12.339-6.28,19.66-6.28c4.592,0,8.965,0.924,12.941,2.568 c0.029,0.015,0.044,0.015,0.073,0.029c0.161,0.073,0.279,0.249,0.279,0.44c0,0.279-0.235,0.513-0.513,0.513 c0,0-0.484-0.044-0.719-0.059c-0.792-0.059-1.599-0.088-2.406-0.088c-11.312,0-21.495,4.167-27.657,12.589 c-0.103,0.132-0.293,0.411-0.293,0.411c-0.103,0.117-0.235,0.191-0.396,0.191c-0.117,0-0.235-0.044-0.323-0.132 c-0.015-0.015-0.029-0.029-0.044-0.029c-0.513-0.484-1.042-0.939-1.585-1.379c-0.088-0.073-0.176-0.147-0.264-0.205 c-0.235-0.176-0.47-0.352-0.69-0.528c-1.1-0.807-2.26-1.511-3.463-2.113c-0.866-0.455-1.761-0.851-2.67-1.203 c-2.744-1.071-5.693-1.746-8.789-2.113c-1.027-0.117-2.069-0.205-3.14-0.249c-0.543-0.015-1.071-0.029-1.614-0.044 c4.416,12.559,16.374,21.568,30.459,21.568c17.827,0,32.293-14.452,32.293-32.278 C420.876,217.978,406.409,203.526,388.583,203.526z M413.862,222.834c-0.117,0-0.308-0.029-0.425-0.059 c-0.367-0.044-0.734-0.103-1.1-0.132c-6.221-0.587-12.016,1.012-16.022,5.106c-0.235,0.235-0.455,0.484-0.675,0.734h-0.015 c-0.161,0.176-0.308,0.176-0.47,0.015c-3.184-3.609-7.717-5.209-12.911-5.707c-1.849-0.176-3.668-0.073-5.414,0.249h-0.073 c-0.191,0-0.337-0.147-0.337-0.337c0-0.103,0.059-0.205,0.132-0.264c0.029-0.015,0.059-0.029,0.103-0.044 c3.243-1.702,6.984-2.509,10.901-2.142c2.832,0.264,5.473,1.13,7.791,2.45c3.404-1.966,7.424-2.934,11.635-2.538 c2.377,0.235,4.622,0.88,6.661,1.849c0.117,0.073,0.249,0.132,0.382,0.191c0.117,0.073,0.176,0.176,0.176,0.308 C414.2,222.688,414.083,222.864,413.862,222.834z" clip-rule="evenodd"/></g><linearGradient id="cUm1W5JUeu8Tmu~vFCpa9b" x1="93.92" x2="143.737" y1="229.815" y2="290.147" gradientTransform="rotate(39.547 374.078 31.959)" gradientUnits="userSpaceOnUse"><stop offset="0" stop-color="#1a6dff"/><stop offset=".695" stop-color="#c822ff"/></linearGradient><path fill="url(#cUm1W5JUeu8Tmu~vFCpa9b)" d="M15.542,52.039C7.987,45.801,4.28,35.527,6.899,25.435C10.499,11.559,24.719,3.199,38.596,6.8	l0,0c6.724,1.746,12.364,6.003,15.884,11.988c3.519,5.986,4.496,12.985,2.752,19.709c-3.599,13.877-17.819,22.236-31.696,18.636	C21.75,56.151,18.375,54.379,15.542,52.039z M47.346,13.443c-2.666-2.202-5.805-3.812-9.252-4.706l0,0	c-12.81-3.324-25.935,4.392-29.259,17.2c-3.323,12.81,4.393,25.937,17.202,29.26c12.81,3.323,25.935-4.394,29.258-17.202	c1.611-6.207,0.708-12.668-2.539-18.193C51.312,17.345,49.48,15.204,47.346,13.443z M38.345,7.768l0.008,0.006L38.345,7.768z M27.293,50.357l0.008,0.006L27.293,50.357z"/></svg>